# xmcd CD database file
#
# Track frame offsets:
#	150
#	11388
#	23126
#	37186
#	50087
#	66576
#	80297
#	94792
#	106125
#	128980
#	142385
#	156067
#	167597
#	181464
#	199145
#	211183
#	224446
#	235880
#
# Disc length: 3377 seconds
#
# Revision: 0
# Processed by: cddbd v1.5PL3 Copyright (c) Steve Scherf et al.
# Submitted via: CDex 1.51
#
DISCID=060d2f12
DTITLE=John Petley - Plays Rollicking Ragtime
DYEAR=2003
DGENRE=Jazz
TTITLE0=Dill Pickles
TTITLE1=Maple Leaf Rag
TTITLE2=Kinklets
TTITLE3=Rosebud Rag
TTITLE4=Brun Campbell Express
TTITLE5=Grace And Beauty
TTITLE6=Agitation Rag
TTITLE7=Essay In Ragtime
TTITLE8=Heliotrope Bouquet
TTITLE9=Cole Smoak
TTITLE10=Temptation Rag
TTITLE11=Hilarity Rag
TTITLE12=Something Doing
TTITLE13=Original Rags
TTITLE14=Just Ask Me
TTITLE15=Creole Belles
TTITLE16=Storyville Sport
TTITLE17=One For Norma
EXTD=YEAR: 2003
EXTT0=
EXTT1=
EXTT2=
EXTT3=
EXTT4=
EXTT5=
EXTT6=
EXTT7=
EXTT8=
EXTT9=
EXTT10=
EXTT11=
EXTT12=
EXTT13=
EXTT14=
EXTT15=
EXTT16=
EXTT17=
PLAYORDER=
